<svg xmlns="http://www.w3.org/2000/svg" viewBox="0 0 64 64" width="64" height="64" fill="none">
  <defs>
    <linearGradient id="g" x1="0" y1="0" x2="1" y2="1">
      <stop offset="0%" stop-color="#7c5cff"/>
      <stop offset="100%" stop-color="#00e0b8"/>
    </linearGradient>
  </defs>
  <rect x="4" y="4" width="56" height="56" rx="14" fill="#111522" stroke="#262b3f"/>
  <path d="M22 20h20a2 2 0 0 1 2 2v20a2 2 0 0 1-2 2H22a2 2 0 0 1-2-2V22a2 2 0 0 1 2-2z" fill="url(#g)"/>
  <path d="M26 26c0-1.1.9-2 2-2h8a2 2 0 0 1 2 2v12a2 2 0 0 1-2 2h-8a2 2 0 0 1-2-2V26z" fill="#0b0b10"/>
  <circle cx="40" cy="24" r="2" fill="#0b0b10"/>
</svg>
